<?xml version="1.0" encoding="utf-8" standalone="no"?>
<!DOCTYPE svg PUBLIC "-//W3C//DTD SVG 1.1//EN"
  "http://www.w3.org/Graphics/SVG/1.1/DTD/svg11.dtd">
<svg xmlns:xlink="http://www.w3.org/1999/xlink" width="288pt" height="216pt" viewBox="0 0 288 216" xmlns="http://www.w3.org/2000/svg" version="1.1">
 <metadata>
  <rdf:RDF xmlns:dc="http://purl.org/dc/elements/1.1/" xmlns:cc="http://creativecommons.org/ns#" xmlns:rdf="http://www.w3.org/1999/02/22-rdf-syntax-ns#">
   <cc:Work>
    <dc:type rdf:resource="http://purl.org/dc/dcmitype/StillImage"/>
    <dc:date>2023-07-31T13:05:45.914718</dc:date>
    <dc:format>image/svg+xml</dc:format>
    <dc:creator>
     <cc:Agent>
      <dc:title>Matplotlib v3.5.1, https://matplotlib.org/</dc:title>
     </cc:Agent>
    </dc:creator>
   </cc:Work>
  </rdf:RDF>
 </metadata>
 <defs>
  <style type="text/css">*{stroke-linejoin: round; stroke-linecap: butt}</style>
 </defs>
 <g id="figure_1">
  <g id="patch_1">
   <path d="M 0 216 
L 288 216 
L 288 0 
L 0 0 
z
" style="fill: #ffffff"/>
  </g>
  <g id="axes_1">
   <g id="patch_2">
    <path d="M 38.54 180.121694 
L 281.52 180.121694 
L 281.52 6.48 
L 38.54 6.48 
z
" style="fill: #ffffff"/>
   </g>
   <g id="line2d_1">
    <path d="M 38.54 180.120115 
L 38.54 179.246066 
L 43.64136 179.244172 
L 47.411931 179.042116 
L 53.84408 179.034223 
L 56.838357 178.407219 
L 69.148161 178.381488 
L 69.25906 176.987303 
L 70.589849 176.938052 
L 83.010552 176.763937 
L 83.010552 176.72984 
L 87.11382 176.600872 
L 89.331803 176.568037 
L 89.997198 176.400552 
L 112.398822 176.069686 
L 112.509722 176.059267 
L 116.280292 176.023276 
L 118.165577 175.803698 
L 120.494459 175.775284 
L 120.494459 174.617883 
L 120.716257 174.598941 
L 121.825249 174.201143 
L 122.712442 174.191672 
L 122.712442 173.918897 
L 123.599635 173.913214 
L 124.26503 173.552039 
L 128.700995 173.491738 
L 128.811894 173.367979 
L 128.811894 173.185497 
L 129.033692 173.17792 
L 129.033692 172.973339 
L 130.475381 172.965762 
L 130.58628 172.332917 
L 130.58628 170.004066 
L 132.138868 169.99933 
L 132.915162 169.85726 
L 134.46775 168.983053 
L 146.00126 168.90302 
L 146.00126 168.520219 
L 148.441041 168.394565 
L 149.217335 168.389829 
L 150.437225 167.916261 
L 150.437225 163.180579 
L 152.32251 163.122961 
L 152.32251 162.948214 
L 154.540493 162.942532 
L 154.651392 162.759419 
L 155.649484 162.704958 
L 155.649484 161.486941 
L 156.647576 161.485362 
L 156.758476 160.942969 
L 158.200164 160.857726 
L 158.532862 160.721339 
L 162.192533 160.618259 
L 163.634222 160.593949 
L 163.966919 160.451878 
L 170.731766 160.424096 
L 171.840758 160.299231 
L 178.827403 160.057554 
L 181.71078 159.779411 
L 181.932579 159.506636 
L 186.257645 159.400715 
L 186.257645 158.355076 
L 187.255737 158.294459 
L 188.14293 157.334694 
L 188.14293 156.243593 
L 190.250014 156.22023 
L 191.026308 155.676574 
L 191.691702 153.188762 
L 191.913501 153.063898 
L 196.349466 152.955766 
L 196.571264 152.677308 
L 196.571264 151.949907 
L 197.347558 151.697338 
L 198.567449 151.678395 
L 198.900146 151.192198 
L 198.900146 150.681376 
L 201.229028 150.645069 
L 202.892515 150.114199 
L 204.112405 150.012855 
L 204.334204 149.675517 
L 208.215673 149.673149 
L 208.991967 149.084977 
L 213.538832 149.05972 
L 214.204226 148.545899 
L 215.313218 148.490491 
L 215.313218 146.788329 
L 215.978613 146.331336 
L 218.529293 146.235517 
L 218.972889 146.182478 
L 218.972889 133.907588 
L 222.188964 133.893381 
L 226.070434 133.629604 
L 229.06471 133.073792 
L 229.730105 133.042537 
L 229.730105 133.042537 
L 229.841004 122.348734 
L 232.058987 122.314637 
L 232.94618 121.507993 
L 234.387869 121.476737 
L 234.609667 121.279417 
L 235.275062 120.344751 
L 236.384053 120.079553 
L 236.384053 119.814355 
L 237.603943 119.49296 
L 239.156531 119.436763 
L 239.26743 101.432014 
L 239.37833 99.885024 
L 239.711027 99.649029 
L 239.821926 97.682932 
L 242.261707 97.658306 
L 244.701488 96.353626 
L 247.806664 96.18614 
L 248.25026 94.998431 
L 250.80094 94.964334 
L 251.688133 94.781221 
L 254.571511 94.764804 
L 256.678594 93.724217 
L 256.678594 93.22034 
L 261.669055 93.101632 
L 261.779954 92.091827 
L 262.445349 92.089459 
L 262.999845 91.39363 
L 265.661424 91.18447 
L 266.21592 90.96584 
L 266.992214 90.962683 
L 266.992214 86.228894 
L 267.768508 86.172066 
L 267.879407 85.678292 
L 271.982675 85.634566 
L 272.093574 85.049078 
L 272.426271 85.039606 
L 274.976951 84.735734 
L 274.976951 83.644632 
L 280.18921 83.54171 
L 280.18921 83.244625 
L 280.411009 83.186534 
L 280.965504 81.403392 
L 280.965504 81.403392 
" clip-path="url(#p97e6a14589)" style="fill: none; stroke-dasharray: 5.55,2.4; stroke-dashoffset: 0; stroke: #bc5090; stroke-width: 1.5"/>
   </g>
   <g id="matplotlib.axis_1">
    <g id="xtick_1">
     <g id="line2d_2">
      <path d="M 38.54 180.121694 
L 38.54 6.48 
" clip-path="url(#p97e6a14589)" style="fill: none; stroke: #b0b0b0; stroke-opacity: 0.25; stroke-width: 0.8; stroke-linecap: square"/>
     </g>
     <g id="line2d_3">
      <defs>
       <path id="m9cae3c3fa3" d="M 0 0 
L 0 3.5 
" style="stroke: #000000; stroke-width: 0.8"/>
      </defs>
      <g>
       <use xlink:href="#m9cae3c3fa3" x="38.54" y="180.121694" style="stroke: #000000; stroke-width: 0.8"/>
      </g>
     </g>
     <g id="text_1">
      <!-- 2017 -->
      <g transform="translate(24.691886 198.704958)rotate(-30)scale(0.06 -0.06)">
       <defs>
        <path id="DejaVuSans-32" d="M 1228 531 
L 3431 531 
L 3431 0 
L 469 0 
L 469 531 
Q 828 903 1448 1529 
Q 2069 2156 2228 2338 
Q 2531 2678 2651 2914 
Q 2772 3150 2772 3378 
Q 2772 3750 2511 3984 
Q 2250 4219 1831 4219 
Q 1534 4219 1204 4116 
Q 875 4013 500 3803 
L 500 4441 
Q 881 4594 1212 4672 
Q 1544 4750 1819 4750 
Q 2544 4750 2975 4387 
Q 3406 4025 3406 3419 
Q 3406 3131 3298 2873 
Q 3191 2616 2906 2266 
Q 2828 2175 2409 1742 
Q 1991 1309 1228 531 
z
" transform="scale(0.015625)"/>
        <path id="DejaVuSans-30" d="M 2034 4250 
Q 1547 4250 1301 3770 
Q 1056 3291 1056 2328 
Q 1056 1369 1301 889 
Q 1547 409 2034 409 
Q 2525 409 2770 889 
Q 3016 1369 3016 2328 
Q 3016 3291 2770 3770 
Q 2525 4250 2034 4250 
z
M 2034 4750 
Q 2819 4750 3233 4129 
Q 3647 3509 3647 2328 
Q 3647 1150 3233 529 
Q 2819 -91 2034 -91 
Q 1250 -91 836 529 
Q 422 1150 422 2328 
Q 422 3509 836 4129 
Q 1250 4750 2034 4750 
z
" transform="scale(0.015625)"/>
        <path id="DejaVuSans-31" d="M 794 531 
L 1825 531 
L 1825 4091 
L 703 3866 
L 703 4441 
L 1819 4666 
L 2450 4666 
L 2450 531 
L 3481 531 
L 3481 0 
L 794 0 
L 794 531 
z
" transform="scale(0.015625)"/>
        <path id="DejaVuSans-37" d="M 525 4666 
L 3525 4666 
L 3525 4397 
L 1831 0 
L 1172 0 
L 2766 4134 
L 525 4134 
L 525 4666 
z
" transform="scale(0.015625)"/>
       </defs>
       <use xlink:href="#DejaVuSans-32"/>
       <use xlink:href="#DejaVuSans-30" x="63.623047"/>
       <use xlink:href="#DejaVuSans-31" x="127.246094"/>
       <use xlink:href="#DejaVuSans-37" x="190.869141"/>
      </g>
     </g>
    </g>
    <g id="xtick_2">
     <g id="line2d_4">
      <path d="M 79.018183 180.121694 
L 79.018183 6.48 
" clip-path="url(#p97e6a14589)" style="fill: none; stroke: #b0b0b0; stroke-opacity: 0.25; stroke-width: 0.8; stroke-linecap: square"/>
     </g>
     <g id="line2d_5">
      <g>
       <use xlink:href="#m9cae3c3fa3" x="79.018183" y="180.121694" style="stroke: #000000; stroke-width: 0.8"/>
      </g>
     </g>
     <g id="text_2">
      <!-- 2018 -->
      <g transform="translate(65.170069 198.704958)rotate(-30)scale(0.06 -0.06)">
       <defs>
        <path id="DejaVuSans-38" d="M 2034 2216 
Q 1584 2216 1326 1975 
Q 1069 1734 1069 1313 
Q 1069 891 1326 650 
Q 1584 409 2034 409 
Q 2484 409 2743 651 
Q 3003 894 3003 1313 
Q 3003 1734 2745 1975 
Q 2488 2216 2034 2216 
z
M 1403 2484 
Q 997 2584 770 2862 
Q 544 3141 544 3541 
Q 544 4100 942 4425 
Q 1341 4750 2034 4750 
Q 2731 4750 3128 4425 
Q 3525 4100 3525 3541 
Q 3525 3141 3298 2862 
Q 3072 2584 2669 2484 
Q 3125 2378 3379 2068 
Q 3634 1759 3634 1313 
Q 3634 634 3220 271 
Q 2806 -91 2034 -91 
Q 1263 -91 848 271 
Q 434 634 434 1313 
Q 434 1759 690 2068 
Q 947 2378 1403 2484 
z
M 1172 3481 
Q 1172 3119 1398 2916 
Q 1625 2713 2034 2713 
Q 2441 2713 2670 2916 
Q 2900 3119 2900 3481 
Q 2900 3844 2670 4047 
Q 2441 4250 2034 4250 
Q 1625 4250 1398 4047 
Q 1172 3844 1172 3481 
z
" transform="scale(0.015625)"/>
       </defs>
       <use xlink:href="#DejaVuSans-32"/>
       <use xlink:href="#DejaVuSans-30" x="63.623047"/>
       <use xlink:href="#DejaVuSans-31" x="127.246094"/>
       <use xlink:href="#DejaVuSans-38" x="190.869141"/>
      </g>
     </g>
    </g>
    <g id="xtick_3">
     <g id="line2d_6">
      <path d="M 119.496367 180.121694 
L 119.496367 6.48 
" clip-path="url(#p97e6a14589)" style="fill: none; stroke: #b0b0b0; stroke-opacity: 0.25; stroke-width: 0.8; stroke-linecap: square"/>
     </g>
     <g id="line2d_7">
      <g>
       <use xlink:href="#m9cae3c3fa3" x="119.496367" y="180.121694" style="stroke: #000000; stroke-width: 0.8"/>
      </g>
     </g>
     <g id="text_3">
      <!-- 2019 -->
      <g transform="translate(105.648253 198.704958)rotate(-30)scale(0.06 -0.06)">
       <defs>
        <path id="DejaVuSans-39" d="M 703 97 
L 703 672 
Q 941 559 1184 500 
Q 1428 441 1663 441 
Q 2288 441 2617 861 
Q 2947 1281 2994 2138 
Q 2813 1869 2534 1725 
Q 2256 1581 1919 1581 
Q 1219 1581 811 2004 
Q 403 2428 403 3163 
Q 403 3881 828 4315 
Q 1253 4750 1959 4750 
Q 2769 4750 3195 4129 
Q 3622 3509 3622 2328 
Q 3622 1225 3098 567 
Q 2575 -91 1691 -91 
Q 1453 -91 1209 -44 
Q 966 3 703 97 
z
M 1959 2075 
Q 2384 2075 2632 2365 
Q 2881 2656 2881 3163 
Q 2881 3666 2632 3958 
Q 2384 4250 1959 4250 
Q 1534 4250 1286 3958 
Q 1038 3666 1038 3163 
Q 1038 2656 1286 2365 
Q 1534 2075 1959 2075 
z
" transform="scale(0.015625)"/>
       </defs>
       <use xlink:href="#DejaVuSans-32"/>
       <use xlink:href="#DejaVuSans-30" x="63.623047"/>
       <use xlink:href="#DejaVuSans-31" x="127.246094"/>
       <use xlink:href="#DejaVuSans-39" x="190.869141"/>
      </g>
     </g>
    </g>
    <g id="xtick_4">
     <g id="line2d_8">
      <path d="M 159.97455 180.121694 
L 159.97455 6.48 
" clip-path="url(#p97e6a14589)" style="fill: none; stroke: #b0b0b0; stroke-opacity: 0.25; stroke-width: 0.8; stroke-linecap: square"/>
     </g>
     <g id="line2d_9">
      <g>
       <use xlink:href="#m9cae3c3fa3" x="159.97455" y="180.121694" style="stroke: #000000; stroke-width: 0.8"/>
      </g>
     </g>
     <g id="text_4">
      <!-- 2020 -->
      <g transform="translate(146.126436 198.704958)rotate(-30)scale(0.06 -0.06)">
       <use xlink:href="#DejaVuSans-32"/>
       <use xlink:href="#DejaVuSans-30" x="63.623047"/>
       <use xlink:href="#DejaVuSans-32" x="127.246094"/>
       <use xlink:href="#DejaVuSans-30" x="190.869141"/>
      </g>
     </g>
    </g>
    <g id="xtick_5">
     <g id="line2d_10">
      <path d="M 200.563633 180.121694 
L 200.563633 6.48 
" clip-path="url(#p97e6a14589)" style="fill: none; stroke: #b0b0b0; stroke-opacity: 0.25; stroke-width: 0.8; stroke-linecap: square"/>
     </g>
     <g id="line2d_11">
      <g>
       <use xlink:href="#m9cae3c3fa3" x="200.563633" y="180.121694" style="stroke: #000000; stroke-width: 0.8"/>
      </g>
     </g>
     <g id="text_5">
      <!-- 2021 -->
      <g transform="translate(186.715519 198.704958)rotate(-30)scale(0.06 -0.06)">
       <use xlink:href="#DejaVuSans-32"/>
       <use xlink:href="#DejaVuSans-30" x="63.623047"/>
       <use xlink:href="#DejaVuSans-32" x="127.246094"/>
       <use xlink:href="#DejaVuSans-31" x="190.869141"/>
      </g>
     </g>
    </g>
    <g id="xtick_6">
     <g id="line2d_12">
      <path d="M 241.041817 180.121694 
L 241.041817 6.48 
" clip-path="url(#p97e6a14589)" style="fill: none; stroke: #b0b0b0; stroke-opacity: 0.25; stroke-width: 0.8; stroke-linecap: square"/>
     </g>
     <g id="line2d_13">
      <g>
       <use xlink:href="#m9cae3c3fa3" x="241.041817" y="180.121694" style="stroke: #000000; stroke-width: 0.8"/>
      </g>
     </g>
     <g id="text_6">
      <!-- 2022 -->
      <g transform="translate(227.193702 198.704958)rotate(-30)scale(0.06 -0.06)">
       <use xlink:href="#DejaVuSans-32"/>
       <use xlink:href="#DejaVuSans-30" x="63.623047"/>
       <use xlink:href="#DejaVuSans-32" x="127.246094"/>
       <use xlink:href="#DejaVuSans-32" x="190.869141"/>
      </g>
     </g>
    </g>
    <g id="xtick_7">
     <g id="line2d_14">
      <path d="M 281.52 180.121694 
L 281.52 6.48 
" clip-path="url(#p97e6a14589)" style="fill: none; stroke: #b0b0b0; stroke-opacity: 0.25; stroke-width: 0.8; stroke-linecap: square"/>
     </g>
     <g id="line2d_15">
      <g>
       <use xlink:href="#m9cae3c3fa3" x="281.52" y="180.121694" style="stroke: #000000; stroke-width: 0.8"/>
      </g>
     </g>
     <g id="text_7">
      <!-- 2023 -->
      <g transform="translate(267.671886 198.704958)rotate(-30)scale(0.06 -0.06)">
       <defs>
        <path id="DejaVuSans-33" d="M 2597 2516 
Q 3050 2419 3304 2112 
Q 3559 1806 3559 1356 
Q 3559 666 3084 287 
Q 2609 -91 1734 -91 
Q 1441 -91 1130 -33 
Q 819 25 488 141 
L 488 750 
Q 750 597 1062 519 
Q 1375 441 1716 441 
Q 2309 441 2620 675 
Q 2931 909 2931 1356 
Q 2931 1769 2642 2001 
Q 2353 2234 1838 2234 
L 1294 2234 
L 1294 2753 
L 1863 2753 
Q 2328 2753 2575 2939 
Q 2822 3125 2822 3475 
Q 2822 3834 2567 4026 
Q 2313 4219 1838 4219 
Q 1578 4219 1281 4162 
Q 984 4106 628 3988 
L 628 4550 
Q 988 4650 1302 4700 
Q 1616 4750 1894 4750 
Q 2613 4750 3031 4423 
Q 3450 4097 3450 3541 
Q 3450 3153 3228 2886 
Q 3006 2619 2597 2516 
z
" transform="scale(0.015625)"/>
       </defs>
       <use xlink:href="#DejaVuSans-32"/>
       <use xlink:href="#DejaVuSans-30" x="63.623047"/>
       <use xlink:href="#DejaVuSans-32" x="127.246094"/>
       <use xlink:href="#DejaVuSans-33" x="190.869141"/>
      </g>
     </g>
    </g>
    <g id="text_8">
     <!-- Year -->
     <g transform="translate(153.6775 208.344657)scale(0.06 -0.06)">
      <defs>
       <path id="DejaVuSans-59" d="M -13 4666 
L 666 4666 
L 1959 2747 
L 3244 4666 
L 3922 4666 
L 2272 2222 
L 2272 0 
L 1638 0 
L 1638 2222 
L -13 4666 
z
" transform="scale(0.015625)"/>
       <path id="DejaVuSans-65" d="M 3597 1894 
L 3597 1613 
L 953 1613 
Q 991 1019 1311 708 
Q 1631 397 2203 397 
Q 2534 397 2845 478 
Q 3156 559 3463 722 
L 3463 178 
Q 3153 47 2828 -22 
Q 2503 -91 2169 -91 
Q 1331 -91 842 396 
Q 353 884 353 1716 
Q 353 2575 817 3079 
Q 1281 3584 2069 3584 
Q 2775 3584 3186 3129 
Q 3597 2675 3597 1894 
z
M 3022 2063 
Q 3016 2534 2758 2815 
Q 2500 3097 2075 3097 
Q 1594 3097 1305 2825 
Q 1016 2553 972 2059 
L 3022 2063 
z
" transform="scale(0.015625)"/>
       <path id="DejaVuSans-61" d="M 2194 1759 
Q 1497 1759 1228 1600 
Q 959 1441 959 1056 
Q 959 750 1161 570 
Q 1363 391 1709 391 
Q 2188 391 2477 730 
Q 2766 1069 2766 1631 
L 2766 1759 
L 2194 1759 
z
M 3341 1997 
L 3341 0 
L 2766 0 
L 2766 531 
Q 2569 213 2275 61 
Q 1981 -91 1556 -91 
Q 1019 -91 701 211 
Q 384 513 384 1019 
Q 384 1609 779 1909 
Q 1175 2209 1959 2209 
L 2766 2209 
L 2766 2266 
Q 2766 2663 2505 2880 
Q 2244 3097 1772 3097 
Q 1472 3097 1187 3025 
Q 903 2953 641 2809 
L 641 3341 
Q 956 3463 1253 3523 
Q 1550 3584 1831 3584 
Q 2591 3584 2966 3190 
Q 3341 2797 3341 1997 
z
" transform="scale(0.015625)"/>
       <path id="DejaVuSans-72" d="M 2631 2963 
Q 2534 3019 2420 3045 
Q 2306 3072 2169 3072 
Q 1681 3072 1420 2755 
Q 1159 2438 1159 1844 
L 1159 0 
L 581 0 
L 581 3500 
L 1159 3500 
L 1159 2956 
Q 1341 3275 1631 3429 
Q 1922 3584 2338 3584 
Q 2397 3584 2469 3576 
Q 2541 3569 2628 3553 
L 2631 2963 
z
" transform="scale(0.015625)"/>
      </defs>
      <use xlink:href="#DejaVuSans-59"/>
      <use xlink:href="#DejaVuSans-65" x="47.833984"/>
      <use xlink:href="#DejaVuSans-61" x="109.357422"/>
      <use xlink:href="#DejaVuSans-72" x="170.636719"/>
     </g>
    </g>
   </g>
   <g id="matplotlib.axis_2">
    <g id="ytick_1">
     <g id="line2d_16">
      <path d="M 38.54 180.121694 
L 281.52 180.121694 
" clip-path="url(#p97e6a14589)" style="fill: none; stroke: #b0b0b0; stroke-opacity: 0.25; stroke-width: 0.8; stroke-linecap: square"/>
     </g>
     <g id="line2d_17">
      <defs>
       <path id="m9d49af7302" d="M 0 0 
L -3.5 0 
" style="stroke: #000000; stroke-width: 0.8"/>
      </defs>
      <g>
       <use xlink:href="#m9d49af7302" x="38.54" y="180.121694" style="stroke: #000000; stroke-width: 0.8"/>
      </g>
     </g>
     <g id="text_9">
      <!-- 0 -->
      <g transform="translate(27.7225 182.401225)scale(0.06 -0.06)">
       <use xlink:href="#DejaVuSans-30"/>
      </g>
     </g>
    </g>
    <g id="ytick_2">
     <g id="line2d_18">
      <path d="M 38.54 148.550477 
L 281.52 148.550477 
" clip-path="url(#p97e6a14589)" style="fill: none; stroke: #b0b0b0; stroke-opacity: 0.25; stroke-width: 0.8; stroke-linecap: square"/>
     </g>
     <g id="line2d_19">
      <g>
       <use xlink:href="#m9d49af7302" x="38.54" y="148.550477" style="stroke: #000000; stroke-width: 0.8"/>
      </g>
     </g>
     <g id="text_10">
      <!-- 200 -->
      <g transform="translate(20.0875 150.830008)scale(0.06 -0.06)">
       <use xlink:href="#DejaVuSans-32"/>
       <use xlink:href="#DejaVuSans-30" x="63.623047"/>
       <use xlink:href="#DejaVuSans-30" x="127.246094"/>
      </g>
     </g>
    </g>
    <g id="ytick_3">
     <g id="line2d_20">
      <path d="M 38.54 116.97926 
L 281.52 116.97926 
" clip-path="url(#p97e6a14589)" style="fill: none; stroke: #b0b0b0; stroke-opacity: 0.25; stroke-width: 0.8; stroke-linecap: square"/>
     </g>
     <g id="line2d_21">
      <g>
       <use xlink:href="#m9d49af7302" x="38.54" y="116.97926" style="stroke: #000000; stroke-width: 0.8"/>
      </g>
     </g>
     <g id="text_11">
      <!-- 400 -->
      <g transform="translate(20.0875 119.258791)scale(0.06 -0.06)">
       <defs>
        <path id="DejaVuSans-34" d="M 2419 4116 
L 825 1625 
L 2419 1625 
L 2419 4116 
z
M 2253 4666 
L 3047 4666 
L 3047 1625 
L 3713 1625 
L 3713 1100 
L 3047 1100 
L 3047 0 
L 2419 0 
L 2419 1100 
L 313 1100 
L 313 1709 
L 2253 4666 
z
" transform="scale(0.015625)"/>
       </defs>
       <use xlink:href="#DejaVuSans-34"/>
       <use xlink:href="#DejaVuSans-30" x="63.623047"/>
       <use xlink:href="#DejaVuSans-30" x="127.246094"/>
      </g>
     </g>
    </g>
    <g id="ytick_4">
     <g id="line2d_22">
      <path d="M 38.54 85.408043 
L 281.52 85.408043 
" clip-path="url(#p97e6a14589)" style="fill: none; stroke: #b0b0b0; stroke-opacity: 0.25; stroke-width: 0.8; stroke-linecap: square"/>
     </g>
     <g id="line2d_23">
      <g>
       <use xlink:href="#m9d49af7302" x="38.54" y="85.408043" style="stroke: #000000; stroke-width: 0.8"/>
      </g>
     </g>
     <g id="text_12">
      <!-- 600 -->
      <g transform="translate(20.0875 87.687574)scale(0.06 -0.06)">
       <defs>
        <path id="DejaVuSans-36" d="M 2113 2584 
Q 1688 2584 1439 2293 
Q 1191 2003 1191 1497 
Q 1191 994 1439 701 
Q 1688 409 2113 409 
Q 2538 409 2786 701 
Q 3034 994 3034 1497 
Q 3034 2003 2786 2293 
Q 2538 2584 2113 2584 
z
M 3366 4563 
L 3366 3988 
Q 3128 4100 2886 4159 
Q 2644 4219 2406 4219 
Q 1781 4219 1451 3797 
Q 1122 3375 1075 2522 
Q 1259 2794 1537 2939 
Q 1816 3084 2150 3084 
Q 2853 3084 3261 2657 
Q 3669 2231 3669 1497 
Q 3669 778 3244 343 
Q 2819 -91 2113 -91 
Q 1303 -91 875 529 
Q 447 1150 447 2328 
Q 447 3434 972 4092 
Q 1497 4750 2381 4750 
Q 2619 4750 2861 4703 
Q 3103 4656 3366 4563 
z
" transform="scale(0.015625)"/>
       </defs>
       <use xlink:href="#DejaVuSans-36"/>
       <use xlink:href="#DejaVuSans-30" x="63.623047"/>
       <use xlink:href="#DejaVuSans-30" x="127.246094"/>
      </g>
     </g>
    </g>
    <g id="ytick_5">
     <g id="line2d_24">
      <path d="M 38.54 53.836826 
L 281.52 53.836826 
" clip-path="url(#p97e6a14589)" style="fill: none; stroke: #b0b0b0; stroke-opacity: 0.25; stroke-width: 0.8; stroke-linecap: square"/>
     </g>
     <g id="line2d_25">
      <g>
       <use xlink:href="#m9d49af7302" x="38.54" y="53.836826" style="stroke: #000000; stroke-width: 0.8"/>
      </g>
     </g>
     <g id="text_13">
      <!-- 800 -->
      <g transform="translate(20.0875 56.116357)scale(0.06 -0.06)">
       <use xlink:href="#DejaVuSans-38"/>
       <use xlink:href="#DejaVuSans-30" x="63.623047"/>
       <use xlink:href="#DejaVuSans-30" x="127.246094"/>
      </g>
     </g>
    </g>
    <g id="ytick_6">
     <g id="line2d_26">
      <path d="M 38.54 22.265609 
L 281.52 22.265609 
" clip-path="url(#p97e6a14589)" style="fill: none; stroke: #b0b0b0; stroke-opacity: 0.25; stroke-width: 0.8; stroke-linecap: square"/>
     </g>
     <g id="line2d_27">
      <g>
       <use xlink:href="#m9d49af7302" x="38.54" y="22.265609" style="stroke: #000000; stroke-width: 0.8"/>
      </g>
     </g>
     <g id="text_14">
      <!-- 1000 -->
      <g transform="translate(16.27 24.54514)scale(0.06 -0.06)">
       <use xlink:href="#DejaVuSans-31"/>
       <use xlink:href="#DejaVuSans-30" x="63.623047"/>
       <use xlink:href="#DejaVuSans-30" x="127.246094"/>
       <use xlink:href="#DejaVuSans-30" x="190.869141"/>
      </g>
     </g>
    </g>
    <g id="text_15">
     <!-- Number of satellites / thousands -->
     <g transform="translate(11.022188 142.161003)rotate(-90)scale(0.06 -0.06)">
      <defs>
       <path id="DejaVuSans-4e" d="M 628 4666 
L 1478 4666 
L 3547 763 
L 3547 4666 
L 4159 4666 
L 4159 0 
L 3309 0 
L 1241 3903 
L 1241 0 
L 628 0 
L 628 4666 
z
" transform="scale(0.015625)"/>
       <path id="DejaVuSans-75" d="M 544 1381 
L 544 3500 
L 1119 3500 
L 1119 1403 
Q 1119 906 1312 657 
Q 1506 409 1894 409 
Q 2359 409 2629 706 
Q 2900 1003 2900 1516 
L 2900 3500 
L 3475 3500 
L 3475 0 
L 2900 0 
L 2900 538 
Q 2691 219 2414 64 
Q 2138 -91 1772 -91 
Q 1169 -91 856 284 
Q 544 659 544 1381 
z
M 1991 3584 
L 1991 3584 
z
" transform="scale(0.015625)"/>
       <path id="DejaVuSans-6d" d="M 3328 2828 
Q 3544 3216 3844 3400 
Q 4144 3584 4550 3584 
Q 5097 3584 5394 3201 
Q 5691 2819 5691 2113 
L 5691 0 
L 5113 0 
L 5113 2094 
Q 5113 2597 4934 2840 
Q 4756 3084 4391 3084 
Q 3944 3084 3684 2787 
Q 3425 2491 3425 1978 
L 3425 0 
L 2847 0 
L 2847 2094 
Q 2847 2600 2669 2842 
Q 2491 3084 2119 3084 
Q 1678 3084 1418 2786 
Q 1159 2488 1159 1978 
L 1159 0 
L 581 0 
L 581 3500 
L 1159 3500 
L 1159 2956 
Q 1356 3278 1631 3431 
Q 1906 3584 2284 3584 
Q 2666 3584 2933 3390 
Q 3200 3197 3328 2828 
z
" transform="scale(0.015625)"/>
       <path id="DejaVuSans-62" d="M 3116 1747 
Q 3116 2381 2855 2742 
Q 2594 3103 2138 3103 
Q 1681 3103 1420 2742 
Q 1159 2381 1159 1747 
Q 1159 1113 1420 752 
Q 1681 391 2138 391 
Q 2594 391 2855 752 
Q 3116 1113 3116 1747 
z
M 1159 2969 
Q 1341 3281 1617 3432 
Q 1894 3584 2278 3584 
Q 2916 3584 3314 3078 
Q 3713 2572 3713 1747 
Q 3713 922 3314 415 
Q 2916 -91 2278 -91 
Q 1894 -91 1617 61 
Q 1341 213 1159 525 
L 1159 0 
L 581 0 
L 581 4863 
L 1159 4863 
L 1159 2969 
z
" transform="scale(0.015625)"/>
       <path id="DejaVuSans-20" transform="scale(0.015625)"/>
       <path id="DejaVuSans-6f" d="M 1959 3097 
Q 1497 3097 1228 2736 
Q 959 2375 959 1747 
Q 959 1119 1226 758 
Q 1494 397 1959 397 
Q 2419 397 2687 759 
Q 2956 1122 2956 1747 
Q 2956 2369 2687 2733 
Q 2419 3097 1959 3097 
z
M 1959 3584 
Q 2709 3584 3137 3096 
Q 3566 2609 3566 1747 
Q 3566 888 3137 398 
Q 2709 -91 1959 -91 
Q 1206 -91 779 398 
Q 353 888 353 1747 
Q 353 2609 779 3096 
Q 1206 3584 1959 3584 
z
" transform="scale(0.015625)"/>
       <path id="DejaVuSans-66" d="M 2375 4863 
L 2375 4384 
L 1825 4384 
Q 1516 4384 1395 4259 
Q 1275 4134 1275 3809 
L 1275 3500 
L 2222 3500 
L 2222 3053 
L 1275 3053 
L 1275 0 
L 697 0 
L 697 3053 
L 147 3053 
L 147 3500 
L 697 3500 
L 697 3744 
Q 697 4328 969 4595 
Q 1241 4863 1831 4863 
L 2375 4863 
z
" transform="scale(0.015625)"/>
       <path id="DejaVuSans-73" d="M 2834 3397 
L 2834 2853 
Q 2591 2978 2328 3040 
Q 2066 3103 1784 3103 
Q 1356 3103 1142 2972 
Q 928 2841 928 2578 
Q 928 2378 1081 2264 
Q 1234 2150 1697 2047 
L 1894 2003 
Q 2506 1872 2764 1633 
Q 3022 1394 3022 966 
Q 3022 478 2636 193 
Q 2250 -91 1575 -91 
Q 1294 -91 989 -36 
Q 684 19 347 128 
L 347 722 
Q 666 556 975 473 
Q 1284 391 1588 391 
Q 1994 391 2212 530 
Q 2431 669 2431 922 
Q 2431 1156 2273 1281 
Q 2116 1406 1581 1522 
L 1381 1569 
Q 847 1681 609 1914 
Q 372 2147 372 2553 
Q 372 3047 722 3315 
Q 1072 3584 1716 3584 
Q 2034 3584 2315 3537 
Q 2597 3491 2834 3397 
z
" transform="scale(0.015625)"/>
       <path id="DejaVuSans-74" d="M 1172 4494 
L 1172 3500 
L 2356 3500 
L 2356 3053 
L 1172 3053 
L 1172 1153 
Q 1172 725 1289 603 
Q 1406 481 1766 481 
L 2356 481 
L 2356 0 
L 1766 0 
Q 1100 0 847 248 
Q 594 497 594 1153 
L 594 3053 
L 172 3053 
L 172 3500 
L 594 3500 
L 594 4494 
L 1172 4494 
z
" transform="scale(0.015625)"/>
       <path id="DejaVuSans-6c" d="M 603 4863 
L 1178 4863 
L 1178 0 
L 603 0 
L 603 4863 
z
" transform="scale(0.015625)"/>
       <path id="DejaVuSans-69" d="M 603 3500 
L 1178 3500 
L 1178 0 
L 603 0 
L 603 3500 
z
M 603 4863 
L 1178 4863 
L 1178 4134 
L 603 4134 
L 603 4863 
z
" transform="scale(0.015625)"/>
       <path id="DejaVuSans-2f" d="M 1625 4666 
L 2156 4666 
L 531 -594 
L 0 -594 
L 1625 4666 
z
" transform="scale(0.015625)"/>
       <path id="DejaVuSans-68" d="M 3513 2113 
L 3513 0 
L 2938 0 
L 2938 2094 
Q 2938 2591 2744 2837 
Q 2550 3084 2163 3084 
Q 1697 3084 1428 2787 
Q 1159 2491 1159 1978 
L 1159 0 
L 581 0 
L 581 4863 
L 1159 4863 
L 1159 2956 
Q 1366 3272 1645 3428 
Q 1925 3584 2291 3584 
Q 2894 3584 3203 3211 
Q 3513 2838 3513 2113 
z
" transform="scale(0.015625)"/>
       <path id="DejaVuSans-6e" d="M 3513 2113 
L 3513 0 
L 2938 0 
L 2938 2094 
Q 2938 2591 2744 2837 
Q 2550 3084 2163 3084 
Q 1697 3084 1428 2787 
Q 1159 2491 1159 1978 
L 1159 0 
L 581 0 
L 581 3500 
L 1159 3500 
L 1159 2956 
Q 1366 3272 1645 3428 
Q 1925 3584 2291 3584 
Q 2894 3584 3203 3211 
Q 3513 2838 3513 2113 
z
" transform="scale(0.015625)"/>
       <path id="DejaVuSans-64" d="M 2906 2969 
L 2906 4863 
L 3481 4863 
L 3481 0 
L 2906 0 
L 2906 525 
Q 2725 213 2448 61 
Q 2172 -91 1784 -91 
Q 1150 -91 751 415 
Q 353 922 353 1747 
Q 353 2572 751 3078 
Q 1150 3584 1784 3584 
Q 2172 3584 2448 3432 
Q 2725 3281 2906 2969 
z
M 947 1747 
Q 947 1113 1208 752 
Q 1469 391 1925 391 
Q 2381 391 2643 752 
Q 2906 1113 2906 1747 
Q 2906 2381 2643 2742 
Q 2381 3103 1925 3103 
Q 1469 3103 1208 2742 
Q 947 2381 947 1747 
z
" transform="scale(0.015625)"/>
      </defs>
      <use xlink:href="#DejaVuSans-4e"/>
      <use xlink:href="#DejaVuSans-75" x="74.804688"/>
      <use xlink:href="#DejaVuSans-6d" x="138.183594"/>
      <use xlink:href="#DejaVuSans-62" x="235.595703"/>
      <use xlink:href="#DejaVuSans-65" x="299.072266"/>
      <use xlink:href="#DejaVuSans-72" x="360.595703"/>
      <use xlink:href="#DejaVuSans-20" x="401.708984"/>
      <use xlink:href="#DejaVuSans-6f" x="433.496094"/>
      <use xlink:href="#DejaVuSans-66" x="494.677734"/>
      <use xlink:href="#DejaVuSans-20" x="529.882812"/>
      <use xlink:href="#DejaVuSans-73" x="561.669922"/>
      <use xlink:href="#DejaVuSans-61" x="613.769531"/>
      <use xlink:href="#DejaVuSans-74" x="675.048828"/>
      <use xlink:href="#DejaVuSans-65" x="714.257812"/>
      <use xlink:href="#DejaVuSans-6c" x="775.78125"/>
      <use xlink:href="#DejaVuSans-6c" x="803.564453"/>
      <use xlink:href="#DejaVuSans-69" x="831.347656"/>
      <use xlink:href="#DejaVuSans-74" x="859.130859"/>
      <use xlink:href="#DejaVuSans-65" x="898.339844"/>
      <use xlink:href="#DejaVuSans-73" x="959.863281"/>
      <use xlink:href="#DejaVuSans-20" x="1011.962891"/>
      <use xlink:href="#DejaVuSans-2f" x="1043.75"/>
      <use xlink:href="#DejaVuSans-20" x="1077.441406"/>
      <use xlink:href="#DejaVuSans-74" x="1109.228516"/>
      <use xlink:href="#DejaVuSans-68" x="1148.4375"/>
      <use xlink:href="#DejaVuSans-6f" x="1211.816406"/>
      <use xlink:href="#DejaVuSans-75" x="1272.998047"/>
      <use xlink:href="#DejaVuSans-73" x="1336.376953"/>
      <use xlink:href="#DejaVuSans-61" x="1388.476562"/>
      <use xlink:href="#DejaVuSans-6e" x="1449.755859"/>
      <use xlink:href="#DejaVuSans-64" x="1513.134766"/>
      <use xlink:href="#DejaVuSans-73" x="1576.611328"/>
     </g>
    </g>
   </g>
   <g id="line2d_28">
    <path d="M 38.54 180.120115 
L 38.54 179.246066 
L 43.64136 179.244172 
L 47.411931 179.042116 
L 53.84408 179.034223 
L 56.838357 178.407219 
L 69.148161 178.381488 
L 69.25906 176.987303 
L 70.589849 176.938052 
L 83.010552 176.763937 
L 83.010552 176.72984 
L 87.11382 176.600872 
L 89.331803 176.568037 
L 89.997198 176.400552 
L 112.398822 176.069686 
L 112.509722 176.059267 
L 116.280292 176.023276 
L 118.165577 175.803698 
L 120.494459 175.775284 
L 120.494459 174.617883 
L 120.716257 174.598941 
L 121.825249 174.201143 
L 122.712442 174.191672 
L 122.712442 173.918897 
L 123.599635 173.913214 
L 124.26503 173.552039 
L 128.700995 173.491738 
L 128.811894 173.367979 
L 128.811894 173.185497 
L 129.033692 173.17792 
L 129.033692 172.973339 
L 130.475381 172.965762 
L 130.58628 172.332917 
L 130.58628 170.004066 
L 132.138868 169.99933 
L 132.915162 169.85726 
L 134.46775 168.983053 
L 146.00126 168.90302 
L 146.00126 168.520219 
L 148.441041 168.394565 
L 149.217335 168.389829 
L 150.437225 167.916261 
L 150.437225 163.180579 
L 152.32251 163.122961 
L 152.32251 162.948214 
L 154.540493 162.942532 
L 154.651392 162.759419 
L 155.649484 162.704958 
L 155.649484 161.486941 
L 156.647576 161.485362 
L 156.758476 160.942969 
L 158.200164 160.857726 
L 158.532862 160.721339 
L 162.192533 160.618259 
L 163.634222 160.593949 
L 163.966919 160.451878 
L 170.731766 160.424096 
L 171.840758 160.299231 
L 178.827403 160.057554 
L 181.71078 159.779411 
L 181.932579 159.506636 
L 186.257645 159.400715 
L 186.257645 158.355076 
L 187.255737 158.294459 
L 188.14293 157.334694 
L 188.14293 156.243593 
L 190.250014 156.22023 
L 191.026308 155.676574 
L 191.691702 153.188762 
L 191.913501 153.063898 
L 196.349466 152.955766 
L 196.571264 152.677308 
L 196.571264 151.949907 
L 197.347558 151.697338 
L 198.567449 151.678395 
L 198.900146 151.192198 
L 198.900146 150.681376 
L 201.229028 150.645069 
L 202.892515 150.114199 
L 204.112405 150.012855 
L 204.334204 149.675517 
L 208.215673 149.673149 
L 208.991967 149.084977 
L 213.538832 149.05972 
L 214.204226 148.545899 
L 215.313218 148.490491 
L 215.313218 146.788329 
L 215.978613 146.331336 
L 218.529293 146.235517 
L 218.972889 146.182478 
L 218.972889 133.907588 
L 222.188964 133.893381 
L 226.070434 133.629604 
L 229.06471 133.073792 
L 229.619206 133.042537 
L 229.730105 124.821392 
L 229.841004 60.879575 
L 232.058987 60.845478 
L 232.94618 60.038833 
L 234.387869 60.007578 
L 234.609667 59.810258 
L 235.275062 58.875592 
L 236.384053 58.610394 
L 236.384053 58.345195 
L 237.603943 58.0238 
L 239.156531 57.967604 
L 239.26743 39.962854 
L 239.37833 38.415865 
L 239.711027 38.17987 
L 239.821926 36.213772 
L 242.261707 36.189147 
L 244.701488 34.884466 
L 247.806664 34.716981 
L 248.25026 33.529272 
L 250.80094 33.495175 
L 251.688133 33.312062 
L 254.571511 33.295645 
L 256.678594 32.255057 
L 256.678594 31.751181 
L 261.669055 31.632473 
L 261.779954 30.622668 
L 262.445349 30.6203 
L 262.999845 29.92447 
L 265.661424 29.715311 
L 266.21592 29.49668 
L 266.992214 29.493523 
L 266.992214 24.759735 
L 267.768508 24.702906 
L 267.879407 24.209133 
L 271.982675 24.165407 
L 272.093574 23.579918 
L 272.426271 23.570447 
L 274.976951 23.266574 
L 274.976951 22.175473 
L 280.18921 22.072551 
L 280.18921 21.775465 
L 280.411009 21.717374 
L 280.965504 19.934232 
L 280.965504 19.934232 
" clip-path="url(#p97e6a14589)" style="fill: none; stroke: #003f5c; stroke-width: 1.5; stroke-linecap: square"/>
   </g>
   <g id="patch_3">
    <path d="M 38.54 180.121694 
L 38.54 6.48 
" style="fill: none; stroke: #000000; stroke-width: 0.8; stroke-linejoin: miter; stroke-linecap: square"/>
   </g>
   <g id="patch_4">
    <path d="M 281.52 180.121694 
L 281.52 6.48 
" style="fill: none; stroke: #000000; stroke-width: 0.8; stroke-linejoin: miter; stroke-linecap: square"/>
   </g>
   <g id="patch_5">
    <path d="M 38.54 180.121694 
L 281.52 180.121694 
" style="fill: none; stroke: #000000; stroke-width: 0.8; stroke-linejoin: miter; stroke-linecap: square"/>
   </g>
   <g id="patch_6">
    <path d="M 38.54 6.48 
L 281.52 6.48 
" style="fill: none; stroke: #000000; stroke-width: 0.8; stroke-linejoin: miter; stroke-linecap: square"/>
   </g>
   <g id="PathCollection_1">
    <defs>
     <path id="m7f1eba3d98" d="M -2.738613 0 
L 2.738613 0 
M 0 2.738613 
L 0 -2.738613 
" style="stroke: #ff6361; stroke-width: 1.5"/>
    </defs>
    <g clip-path="url(#p97e6a14589)">
     <use xlink:href="#m7f1eba3d98" x="191.691702" y="177.633882" style="fill: #ff6361; stroke: #ff6361; stroke-width: 1.5"/>
     <use xlink:href="#m7f1eba3d98" x="218.972889" y="167.846804" style="fill: #ff6361; stroke: #ff6361; stroke-width: 1.5"/>
     <use xlink:href="#m7f1eba3d98" x="229.730105" y="171.900549" style="fill: #ff6361; stroke: #ff6361; stroke-width: 1.5"/>
     <use xlink:href="#m7f1eba3d98" x="229.730105" y="126.873679" style="fill: #ff6361; stroke: #ff6361; stroke-width: 1.5"/>
     <use xlink:href="#m7f1eba3d98" x="229.841004" y="169.427891" style="fill: #ff6361; stroke: #ff6361; stroke-width: 1.5"/>
     <use xlink:href="#m7f1eba3d98" x="239.156531" y="162.118523" style="fill: #ff6361; stroke: #ff6361; stroke-width: 1.5"/>
     <use xlink:href="#m7f1eba3d98" x="266.992214" y="175.387905" style="fill: #ff6361; stroke: #ff6361; stroke-width: 1.5"/>
     <use xlink:href="#m7f1eba3d98" x="280.965504" y="178.338551" style="fill: #ff6361; stroke: #ff6361; stroke-width: 1.5"/>
    </g>
   </g>
   <g id="legend_1">
    <g id="patch_7">
     <path d="M 42.74 37.700625 
L 203.121875 37.700625 
Q 204.321875 37.700625 204.321875 36.500625 
L 204.321875 10.68 
Q 204.321875 9.48 203.121875 9.48 
L 42.74 9.48 
Q 41.54 9.48 41.54 10.68 
L 41.54 36.500625 
Q 41.54 37.700625 42.74 37.700625 
z
" style="fill: #ffffff; opacity: 0.8; stroke: #cccccc; stroke-linejoin: miter"/>
    </g>
    <g id="line2d_29">
     <path d="M 43.94 14.339063 
L 49.94 14.339063 
L 55.94 14.339063 
" style="fill: none; stroke-dasharray: 5.55,2.4; stroke-dashoffset: 0; stroke: #bc5090; stroke-width: 1.5"/>
    </g>
    <g id="text_16">
     <!-- Cumulative satellites filed excluding Cinnamon -->
     <g transform="translate(60.74 16.439063)scale(0.06 -0.06)">
      <defs>
       <path id="DejaVuSans-43" d="M 4122 4306 
L 4122 3641 
Q 3803 3938 3442 4084 
Q 3081 4231 2675 4231 
Q 1875 4231 1450 3742 
Q 1025 3253 1025 2328 
Q 1025 1406 1450 917 
Q 1875 428 2675 428 
Q 3081 428 3442 575 
Q 3803 722 4122 1019 
L 4122 359 
Q 3791 134 3420 21 
Q 3050 -91 2638 -91 
Q 1578 -91 968 557 
Q 359 1206 359 2328 
Q 359 3453 968 4101 
Q 1578 4750 2638 4750 
Q 3056 4750 3426 4639 
Q 3797 4528 4122 4306 
z
" transform="scale(0.015625)"/>
       <path id="DejaVuSans-76" d="M 191 3500 
L 800 3500 
L 1894 563 
L 2988 3500 
L 3597 3500 
L 2284 0 
L 1503 0 
L 191 3500 
z
" transform="scale(0.015625)"/>
       <path id="DejaVuSans-78" d="M 3513 3500 
L 2247 1797 
L 3578 0 
L 2900 0 
L 1881 1375 
L 863 0 
L 184 0 
L 1544 1831 
L 300 3500 
L 978 3500 
L 1906 2253 
L 2834 3500 
L 3513 3500 
z
" transform="scale(0.015625)"/>
       <path id="DejaVuSans-63" d="M 3122 3366 
L 3122 2828 
Q 2878 2963 2633 3030 
Q 2388 3097 2138 3097 
Q 1578 3097 1268 2742 
Q 959 2388 959 1747 
Q 959 1106 1268 751 
Q 1578 397 2138 397 
Q 2388 397 2633 464 
Q 2878 531 3122 666 
L 3122 134 
Q 2881 22 2623 -34 
Q 2366 -91 2075 -91 
Q 1284 -91 818 406 
Q 353 903 353 1747 
Q 353 2603 823 3093 
Q 1294 3584 2113 3584 
Q 2378 3584 2631 3529 
Q 2884 3475 3122 3366 
z
" transform="scale(0.015625)"/>
       <path id="DejaVuSans-67" d="M 2906 1791 
Q 2906 2416 2648 2759 
Q 2391 3103 1925 3103 
Q 1463 3103 1205 2759 
Q 947 2416 947 1791 
Q 947 1169 1205 825 
Q 1463 481 1925 481 
Q 2391 481 2648 825 
Q 2906 1169 2906 1791 
z
M 3481 434 
Q 3481 -459 3084 -895 
Q 2688 -1331 1869 -1331 
Q 1566 -1331 1297 -1286 
Q 1028 -1241 775 -1147 
L 775 -588 
Q 1028 -725 1275 -790 
Q 1522 -856 1778 -856 
Q 2344 -856 2625 -561 
Q 2906 -266 2906 331 
L 2906 616 
Q 2728 306 2450 153 
Q 2172 0 1784 0 
Q 1141 0 747 490 
Q 353 981 353 1791 
Q 353 2603 747 3093 
Q 1141 3584 1784 3584 
Q 2172 3584 2450 3431 
Q 2728 3278 2906 2969 
L 2906 3500 
L 3481 3500 
L 3481 434 
z
" transform="scale(0.015625)"/>
      </defs>
      <use xlink:href="#DejaVuSans-43"/>
      <use xlink:href="#DejaVuSans-75" x="69.824219"/>
      <use xlink:href="#DejaVuSans-6d" x="133.203125"/>
      <use xlink:href="#DejaVuSans-75" x="230.615234"/>
      <use xlink:href="#DejaVuSans-6c" x="293.994141"/>
      <use xlink:href="#DejaVuSans-61" x="321.777344"/>
      <use xlink:href="#DejaVuSans-74" x="383.056641"/>
      <use xlink:href="#DejaVuSans-69" x="422.265625"/>
      <use xlink:href="#DejaVuSans-76" x="450.048828"/>
      <use xlink:href="#DejaVuSans-65" x="509.228516"/>
      <use xlink:href="#DejaVuSans-20" x="570.751953"/>
      <use xlink:href="#DejaVuSans-73" x="602.539062"/>
      <use xlink:href="#DejaVuSans-61" x="654.638672"/>
      <use xlink:href="#DejaVuSans-74" x="715.917969"/>
      <use xlink:href="#DejaVuSans-65" x="755.126953"/>
      <use xlink:href="#DejaVuSans-6c" x="816.650391"/>
      <use xlink:href="#DejaVuSans-6c" x="844.433594"/>
      <use xlink:href="#DejaVuSans-69" x="872.216797"/>
      <use xlink:href="#DejaVuSans-74" x="900"/>
      <use xlink:href="#DejaVuSans-65" x="939.208984"/>
      <use xlink:href="#DejaVuSans-73" x="1000.732422"/>
      <use xlink:href="#DejaVuSans-20" x="1052.832031"/>
      <use xlink:href="#DejaVuSans-66" x="1084.619141"/>
      <use xlink:href="#DejaVuSans-69" x="1119.824219"/>
      <use xlink:href="#DejaVuSans-6c" x="1147.607422"/>
      <use xlink:href="#DejaVuSans-65" x="1175.390625"/>
      <use xlink:href="#DejaVuSans-64" x="1236.914062"/>
      <use xlink:href="#DejaVuSans-20" x="1300.390625"/>
      <use xlink:href="#DejaVuSans-65" x="1332.177734"/>
      <use xlink:href="#DejaVuSans-78" x="1391.951172"/>
      <use xlink:href="#DejaVuSans-63" x="1449.380859"/>
      <use xlink:href="#DejaVuSans-6c" x="1504.361328"/>
      <use xlink:href="#DejaVuSans-75" x="1532.144531"/>
      <use xlink:href="#DejaVuSans-64" x="1595.523438"/>
      <use xlink:href="#DejaVuSans-69" x="1659"/>
      <use xlink:href="#DejaVuSans-6e" x="1686.783203"/>
      <use xlink:href="#DejaVuSans-67" x="1750.162109"/>
      <use xlink:href="#DejaVuSans-20" x="1813.638672"/>
      <use xlink:href="#DejaVuSans-43" x="1845.425781"/>
      <use xlink:href="#DejaVuSans-69" x="1915.25"/>
      <use xlink:href="#DejaVuSans-6e" x="1943.033203"/>
      <use xlink:href="#DejaVuSans-6e" x="2006.412109"/>
      <use xlink:href="#DejaVuSans-61" x="2069.791016"/>
      <use xlink:href="#DejaVuSans-6d" x="2131.070312"/>
      <use xlink:href="#DejaVuSans-6f" x="2228.482422"/>
      <use xlink:href="#DejaVuSans-6e" x="2289.664062"/>
     </g>
    </g>
    <g id="line2d_30">
     <path d="M 43.94 23.145938 
L 49.94 23.145938 
L 55.94 23.145938 
" style="fill: none; stroke: #003f5c; stroke-width: 1.5; stroke-linecap: square"/>
    </g>
    <g id="text_17">
     <!-- Cumulative satellites filed including Cinnamon -->
     <g transform="translate(60.74 25.245938)scale(0.06 -0.06)">
      <use xlink:href="#DejaVuSans-43"/>
      <use xlink:href="#DejaVuSans-75" x="69.824219"/>
      <use xlink:href="#DejaVuSans-6d" x="133.203125"/>
      <use xlink:href="#DejaVuSans-75" x="230.615234"/>
      <use xlink:href="#DejaVuSans-6c" x="293.994141"/>
      <use xlink:href="#DejaVuSans-61" x="321.777344"/>
      <use xlink:href="#DejaVuSans-74" x="383.056641"/>
      <use xlink:href="#DejaVuSans-69" x="422.265625"/>
      <use xlink:href="#DejaVuSans-76" x="450.048828"/>
      <use xlink:href="#DejaVuSans-65" x="509.228516"/>
      <use xlink:href="#DejaVuSans-20" x="570.751953"/>
      <use xlink:href="#DejaVuSans-73" x="602.539062"/>
      <use xlink:href="#DejaVuSans-61" x="654.638672"/>
      <use xlink:href="#DejaVuSans-74" x="715.917969"/>
      <use xlink:href="#DejaVuSans-65" x="755.126953"/>
      <use xlink:href="#DejaVuSans-6c" x="816.650391"/>
      <use xlink:href="#DejaVuSans-6c" x="844.433594"/>
      <use xlink:href="#DejaVuSans-69" x="872.216797"/>
      <use xlink:href="#DejaVuSans-74" x="900"/>
      <use xlink:href="#DejaVuSans-65" x="939.208984"/>
      <use xlink:href="#DejaVuSans-73" x="1000.732422"/>
      <use xlink:href="#DejaVuSans-20" x="1052.832031"/>
      <use xlink:href="#DejaVuSans-66" x="1084.619141"/>
      <use xlink:href="#DejaVuSans-69" x="1119.824219"/>
      <use xlink:href="#DejaVuSans-6c" x="1147.607422"/>
      <use xlink:href="#DejaVuSans-65" x="1175.390625"/>
      <use xlink:href="#DejaVuSans-64" x="1236.914062"/>
      <use xlink:href="#DejaVuSans-20" x="1300.390625"/>
      <use xlink:href="#DejaVuSans-69" x="1332.177734"/>
      <use xlink:href="#DejaVuSans-6e" x="1359.960938"/>
      <use xlink:href="#DejaVuSans-63" x="1423.339844"/>
      <use xlink:href="#DejaVuSans-6c" x="1478.320312"/>
      <use xlink:href="#DejaVuSans-75" x="1506.103516"/>
      <use xlink:href="#DejaVuSans-64" x="1569.482422"/>
      <use xlink:href="#DejaVuSans-69" x="1632.958984"/>
      <use xlink:href="#DejaVuSans-6e" x="1660.742188"/>
      <use xlink:href="#DejaVuSans-67" x="1724.121094"/>
      <use xlink:href="#DejaVuSans-20" x="1787.597656"/>
      <use xlink:href="#DejaVuSans-43" x="1819.384766"/>
      <use xlink:href="#DejaVuSans-69" x="1889.208984"/>
      <use xlink:href="#DejaVuSans-6e" x="1916.992188"/>
      <use xlink:href="#DejaVuSans-6e" x="1980.371094"/>
      <use xlink:href="#DejaVuSans-61" x="2043.75"/>
      <use xlink:href="#DejaVuSans-6d" x="2105.029297"/>
      <use xlink:href="#DejaVuSans-6f" x="2202.441406"/>
      <use xlink:href="#DejaVuSans-6e" x="2263.623047"/>
     </g>
    </g>
    <g id="PathCollection_2">
     <g>
      <use xlink:href="#m7f1eba3d98" x="49.94" y="32.477813" style="fill: #ff6361; stroke: #ff6361; stroke-width: 1.5"/>
     </g>
    </g>
    <g id="text_18">
     <!-- No. of satellites in filings &gt; 10,000 satellites -->
     <g transform="translate(60.74 34.052813)scale(0.06 -0.06)">
      <defs>
       <path id="DejaVuSans-2e" d="M 684 794 
L 1344 794 
L 1344 0 
L 684 0 
L 684 794 
z
" transform="scale(0.015625)"/>
       <path id="DejaVuSans-3e" d="M 678 3150 
L 678 3719 
L 4684 2266 
L 4684 1747 
L 678 294 
L 678 863 
L 3897 2003 
L 678 3150 
z
" transform="scale(0.015625)"/>
       <path id="DejaVuSans-2c" d="M 750 794 
L 1409 794 
L 1409 256 
L 897 -744 
L 494 -744 
L 750 256 
L 750 794 
z
" transform="scale(0.015625)"/>
      </defs>
      <use xlink:href="#DejaVuSans-4e"/>
      <use xlink:href="#DejaVuSans-6f" x="74.804688"/>
      <use xlink:href="#DejaVuSans-2e" x="134.236328"/>
      <use xlink:href="#DejaVuSans-20" x="166.023438"/>
      <use xlink:href="#DejaVuSans-6f" x="197.810547"/>
      <use xlink:href="#DejaVuSans-66" x="258.992188"/>
      <use xlink:href="#DejaVuSans-20" x="294.197266"/>
      <use xlink:href="#DejaVuSans-73" x="325.984375"/>
      <use xlink:href="#DejaVuSans-61" x="378.083984"/>
      <use xlink:href="#DejaVuSans-74" x="439.363281"/>
      <use xlink:href="#DejaVuSans-65" x="478.572266"/>
      <use xlink:href="#DejaVuSans-6c" x="540.095703"/>
      <use xlink:href="#DejaVuSans-6c" x="567.878906"/>
      <use xlink:href="#DejaVuSans-69" x="595.662109"/>
      <use xlink:href="#DejaVuSans-74" x="623.445312"/>
      <use xlink:href="#DejaVuSans-65" x="662.654297"/>
      <use xlink:href="#DejaVuSans-73" x="724.177734"/>
      <use xlink:href="#DejaVuSans-20" x="776.277344"/>
      <use xlink:href="#DejaVuSans-69" x="808.064453"/>
      <use xlink:href="#DejaVuSans-6e" x="835.847656"/>
      <use xlink:href="#DejaVuSans-20" x="899.226562"/>
      <use xlink:href="#DejaVuSans-66" x="931.013672"/>
      <use xlink:href="#DejaVuSans-69" x="966.21875"/>
      <use xlink:href="#DejaVuSans-6c" x="994.001953"/>
      <use xlink:href="#DejaVuSans-69" x="1021.785156"/>
      <use xlink:href="#DejaVuSans-6e" x="1049.568359"/>
      <use xlink:href="#DejaVuSans-67" x="1112.947266"/>
      <use xlink:href="#DejaVuSans-73" x="1176.423828"/>
      <use xlink:href="#DejaVuSans-20" x="1228.523438"/>
      <use xlink:href="#DejaVuSans-3e" x="1260.310547"/>
      <use xlink:href="#DejaVuSans-20" x="1344.099609"/>
      <use xlink:href="#DejaVuSans-31" x="1375.886719"/>
      <use xlink:href="#DejaVuSans-30" x="1439.509766"/>
      <use xlink:href="#DejaVuSans-2c" x="1503.132812"/>
      <use xlink:href="#DejaVuSans-30" x="1534.919922"/>
      <use xlink:href="#DejaVuSans-30" x="1598.542969"/>
      <use xlink:href="#DejaVuSans-30" x="1662.166016"/>
      <use xlink:href="#DejaVuSans-20" x="1725.789062"/>
      <use xlink:href="#DejaVuSans-73" x="1757.576172"/>
      <use xlink:href="#DejaVuSans-61" x="1809.675781"/>
      <use xlink:href="#DejaVuSans-74" x="1870.955078"/>
      <use xlink:href="#DejaVuSans-65" x="1910.164062"/>
      <use xlink:href="#DejaVuSans-6c" x="1971.6875"/>
      <use xlink:href="#DejaVuSans-6c" x="1999.470703"/>
      <use xlink:href="#DejaVuSans-69" x="2027.253906"/>
      <use xlink:href="#DejaVuSans-74" x="2055.037109"/>
      <use xlink:href="#DejaVuSans-65" x="2094.246094"/>
      <use xlink:href="#DejaVuSans-73" x="2155.769531"/>
     </g>
    </g>
   </g>
  </g>
 </g>
 <defs>
  <clipPath id="p97e6a14589">
   <rect x="38.54" y="6.48" width="242.98" height="173.641694"/>
  </clipPath>
 </defs>
</svg>
